<svg xmlns="http://www.w3.org/2000/svg">
    <symbol id="accessibility" viewBox="0 0 14.2 16">
      <title>accessibility</title><path d="M6.5,1.5a1.5,1.5,0,0,1,3,0,1.5,1.5,0,0,1-3,0Z" transform="translate(-0.9)"/><path d="M10,5l5.1-2.2-.4-.9L8.5,4h-1L1.2,1.8l-.3,1L6,5V9L3.9,15.6l1,.4L7.8,9.5h.4L11.1,16l.9-.4L10,9Z" transform="translate(-0.9)"/>
    </symbol>
    <symbol id="arrow-double-vertical" viewBox="0 0 8 11">
      <title>double-arrow-vertical</title><path d="M12,7,8,3,4,7ZM4,10l4,4,4-4Z" transform="translate(-4 -3)"/>
    </symbol>
    <symbol id="arrow-down" viewBox="0 0 9 4.5">
      <title>arrow-down</title><path d="M0,0,4.5,4.5,9,0Z"/>
    </symbol>
    <symbol id="arrow-right" viewBox="0 0 4.5 9">
      <title>arrow-right</title><polygon points="0 9 4.5 4.5 0 0 0 9"/>
    </symbol>
    <symbol id="close-x" viewBox="0 0 12 12">
      <title>close-x</title><path d="M14,3.42,12.62,2,8,6.58,3.47,2,2,3.42,6.62,8,2,12.58,3.47,14,8,9.42,12.62,14,14,12.58,9.47,8Z" transform="translate(-2.04 -2)"/>
    </symbol>
    <symbol id="comments" viewBox="0 0 16 16">
      <title>comments</title><path d="M14.5,3H4.5A1.54,1.54,0,0,0,3,4.5v7A1.54,1.54,0,0,0,4.5,13H6.9l2.6,3,2.6-3h2.4A1.54,1.54,0,0,0,16,11.5v-7A1.54,1.54,0,0,0,14.5,3ZM14,11H11.7L9.5,13.4,7.3,11H5V5h9ZM2,2v8H1.5A1.54,1.54,0,0,1,0,8.5v-7A1.54,1.54,0,0,1,1.5,0h10A1.54,1.54,0,0,1,13,1.5V2Z"/>
    </symbol>
    <symbol id="copy" viewBox="0 0 11.17 12.96">
      <title>copy</title><path d="M401.85,303a.42.42,0,0,1,.46.35h0V311l-3.71,3.25h-7a.42.42,0,0,1-.46-.35h0V303.35a.4.4,0,0,1,.39-.41h1v.81h-.46v9.74h5.57v-3.25h3.71v-6.5h-.46v-.81Zm-1.39,0H398.6v-.81a.81.81,0,0,0-.8-.82h-2a.84.84,0,0,0-.93.71.67.67,0,0,0,0,.1v.81H393v1.62h7.42Zm-2.78,0h-1.86v-.81h1.86Z" transform="translate(-391.14 -301.31)"/>
    </symbol>
    <symbol id="cut" viewBox="0 0 15 15.21">
      <title>cut</title><path d="M13.5,13a.8.8,0,0,1-.25.63.62.62,0,0,1-.44,0,2.57,2.57,0,0,1-1.48-1.18,2.82,2.82,0,0,1-.48-1.59.8.8,0,0,1,.25-.63.62.62,0,0,1,.44,0A2.57,2.57,0,0,1,13,11.43,2.82,2.82,0,0,1,13.5,13Zm-6-5A.5.5,0,1,1,8,7.5.5.5,0,0,1,7.5,8ZM3.67,12.51a2.58,2.58,0,0,1-1.48,1.18.62.62,0,0,1-.44,0A.8.8,0,0,1,1.5,13,2.82,2.82,0,0,1,2,11.43a2.58,2.58,0,0,1,1.48-1.18.62.62,0,0,1,.44,0,.8.8,0,0,1,.25.63A2.81,2.81,0,0,1,3.67,12.51Zm10.61-1.89c-1-1.63-2.83-2.35-4-1.6a1.85,1.85,0,0,0-.28.22L8.77,7.3l2.87-4.5A2.13,2.13,0,0,0,11.09.12L10.9,0,7.5,5.31,4.1,0,3.91.12A2.13,2.13,0,0,0,3.36,2.8L6.23,7.3,5,9.24A1.83,1.83,0,0,0,4.71,9c-1.16-.74-3,0-4,1.6s-.94,3.55.22,4.3,3,0,4-1.6l2.57-4,2.57,4c1,1.63,2.83,2.34,4,1.6S15.32,12.25,14.28,10.62Z"/>
    </symbol>
    <symbol id="help-info" viewBox="0 0 16 16">
      <title>help-info</title><path d="M8,0a8,8,0,1,0,8,8A8,8,0,0,0,8,0ZM8,13a1,1,0,0,1,0-2,1,1,0,0,1,0,2ZM9.6,7.9c-.6.4-.8.6-.8.9v.5a.81.81,0,0,1-1.6,0V8.8a2,2,0,0,1,.6-1.4,6.07,6.07,0,0,1,1-.7c.7-.4,1-.7,1-1.1a1,1,0,0,0-.5-.9A1.61,1.61,0,0,0,8,4.1,1.83,1.83,0,0,0,6.2,5.4a.71.71,0,0,1-.9.6.75.75,0,0,1-.5-1A3,3,0,0,1,6,3.3a3.72,3.72,0,0,1,2-.7,3.57,3.57,0,0,1,2.3.8,2.61,2.61,0,0,1,1.1,2.1c0,1.3-1,1.9-1.8,2.4Z"/>
    </symbol>
    <symbol id="knife" viewBox="0 0 15.01 14.43">
      <title>knife</title><path d="M12.19,8.81H2.81a2.82,2.82,0,1,0,0,5.63h9.38a2.82,2.82,0,0,0,0-5.63ZM2.81,12.52a.94.94,0,1,1,.94-.94A.94.94,0,0,1,2.81,12.52ZM5.44,7.88,8.16,3.94A2.81,2.81,0,0,0,7.51,0h0L1.88,8a3.52,3.52,0,0,1,.93-.13Zm1.09,0h5.63A3.68,3.68,0,0,1,14.88,9.1a2.81,2.81,0,0,0-2.69-2.16h-5Z" transform="translate(0.01 -0.01)"/>
    </symbol>
    <symbol id="menu-more-vertical" viewBox="0 0 4 14">
      <title>menu-dots-vertical</title><circle cx="2" cy="12" r="2"/><circle cx="2" cy="7" r="2"/><circle cx="2" cy="2" r="2"/>
    </symbol>
    <symbol id="metadata" viewBox="0 0 16 16">
      <title>metadata</title><path d="M8,0a8,8,0,1,0,8,8A8,8,0,0,0,8,0ZM7,3.75A.75.75,0,0,1,7.75,3h.5A.75.75,0,0,1,9,3.75v.5A.75.75,0,0,1,8.25,5h-.5A.75.75,0,0,1,7,4.25ZM10,13H6V12H7V8H6V7H9v5h1Z"/>
    </symbol>
    <symbol id="paste" viewBox="0 0 13.16 14">
      <title>paste</title><path d="M403,310.42h-2.63V313H396v-7.87h7Zm-1.74,2.26v-1.37h1.39Zm-8.74-9.26v-.87h7v.87Zm2.62-2.62h1.76v.82h-1.74Zm6.13,3.5v-2.15a.44.44,0,0,0-.44-.44h-3.06v-.87a.88.88,0,0,0-.88-.88h-1.74a.88.88,0,0,0-.87.88v.88h-3.06a.44.44,0,0,0-.44.44h0v8.74a.44.44,0,0,0,.44.44h3.93V314h6.16l2.63-2.62v-7Z" transform="translate(-390.75 -299.95)"/>
    </symbol>
    <symbol id="redo" viewBox="0 0 16 14">
      <title>redo</title><path d="M0,9a8,8,0,0,0,2.71,6L4,13.5a6,6,0,1,1,8.21-8.74L10,7h6V1L13.66,3.34A8,8,0,0,0,0,9Z" transform="translate(0 -1)"/>
    </symbol>
    <symbol id="settings" viewBox="0 0 16 16">
      <title>settings</title><path d="M5.7,11.3l.6-.9-.7-.7-.9.6c-.2-.1-.3-.2-.5-.2L4,9H3l-.2,1.1c-.2.1-.4.1-.5.2l-.9-.6-.7.7.6.9c-.1.2-.2.3-.2.5L0,12v1l1.1.2c.1.2.1.4.2.5l-.6.9.7.7.9-.6c.2.1.3.2.5.2L3,16H4l.2-1.1c.2-.1.4-.1.5-.2l.9.6.7-.7-.6-.9c.1-.2.2-.3.2-.5L7,13V12l-1.1-.2a.76.76,0,0,0-.2-.5ZM3.5,13.5a1,1,0,0,1,0-2,1,1,0,0,1,0,2ZM16,6V5l-1.1-.2a.76.76,0,0,0-.1-.4l.9-.6-.4-.9-1,.2c-.1-.1-.1-.2-.2-.3l.6-.8L14,1.3l-.9.6c-.1-.1-.2-.1-.3-.2l.2-1L12.1.3l-.6.9c-.1,0-.2-.1-.4-.1L11,0H10L9.8,1.1a.76.76,0,0,0-.4.1L8.9.2,7.9.6l.2,1-.3.3L7,1.3,6.3,2l.6.9c-.1,0-.2.2-.2.3L5.7,3l-.5.9.9.6c0,.1-.1.2-.1.4L5,5V6l1,.2a.76.76,0,0,0,.1.4l-.9.5.4.9,1-.2c.1.1.1.2.2.3L6.3,9l.7.7.9-.6c0,.1.1.2.3.2l-.2,1,.9.4.6-.9c.1,0,.2.1.4.1L10,11h1l.2-1.1a.76.76,0,0,0,.4-.1l.6.9.9-.4-.2-1c.1-.1.2-.1.3-.2l.8.6.7-.7-.6-.9c.1-.1.1-.2.2-.3l1,.2.4-.9-.9-.6c0-.1.1-.2.1-.4C14.9,6.2,16,6,16,6ZM10.5,7.7a2.2,2.2,0,1,1,2.2-2.2A2.22,2.22,0,0,1,10.5,7.7Z"/>
    </symbol>
    <symbol id="themes" viewBox="0 0 16 16">
      <title>themes</title><path d="M16,9V3H13V2a1,1,0,0,0-1-1H1A1,1,0,0,0,0,2V5A.94.94,0,0,0,1,6H12a.94.94,0,0,0,1-1V4h2V8H6v2H5.5a.47.47,0,0,0-.5.5v5a.47.47,0,0,0,.5.5h2a.47.47,0,0,0,.5-.5v-5a.47.47,0,0,0-.5-.5H7V9ZM12,3H1V2H12Z"/>
    </symbol>
    <symbol id="undo" viewBox="0 0 16 14.01">
      <title>undo</title><path d="M13.65,2.33a8,8,0,0,0-11.31,0L0,0V6H6L3.79,3.76l.33-.31A6,6,0,1,1,12,12.5L13.29,14a8,8,0,0,0,.36-11.67Z" transform="translate(0 0.01)"/>
    </symbol></svg>
